<svg width="121" height="24" viewBox="0 0 121 24" fill="none" xmlns="http://www.w3.org/2000/svg">
<path fill-rule="evenodd" clip-rule="evenodd" d="M15.5249 16.045C16.3018 15.364 16.8081 14.469 17.0468 13.361H24.7161C24.3646 16.528 23.0914 19.092 20.8974 21.055C18.7025 23.018 16.0002 24 12.7927 24C10.4529 24 8.34684 23.485 6.47344 22.456C4.60004 21.427 3.13807 19.997 2.08753 18.166C1.03699 16.335 0.511719 14.28 0.511719 12C0.511719 9.72 1.03699 7.665 2.08753 5.834C3.13807 4.003 4.60004 2.573 6.47344 1.544C8.34684 0.514 10.4529 0 12.7927 0C15.9493 0 18.6146 0.947 20.7886 2.842C22.9615 4.736 24.2458 7.219 24.6382 10.29H17.0787C16.7582 9.277 16.2099 8.462 15.433 7.844C14.6571 7.227 13.7873 6.918 12.8246 6.918C11.4995 6.918 10.4309 7.385 9.61907 8.319C8.8052 9.253 8.39976 10.48 8.39976 11.999C8.39976 13.509 8.80919 14.731 9.62606 15.665C10.4449 16.599 11.5094 17.065 12.8246 17.065C13.8492 17.065 14.7499 16.725 15.5259 16.045H15.5249ZM42.7471 9.805C44.236 11.235 44.981 13.085 44.981 15.352C44.981 17.944 44.1241 20.034 42.4095 21.62C40.6939 23.207 38.435 24 35.6289 24C32.8568 24 30.6029 23.204 28.8663 21.612C27.1287 20.019 26.261 17.956 26.261 15.419C26.261 14.034 26.4996 12.64 26.976 11.238C27.4523 9.836 28.1893 8.302 29.1869 6.638L32.712 0.768L40.1617 0.767L35.9904 7.693C36.4069 7.671 36.7354 7.66 36.9771 7.66C39.3328 7.66 41.2551 8.375 42.7461 9.805H42.7471ZM37.717 17.48C38.2533 16.933 38.5219 16.224 38.5219 15.352C38.5219 14.481 38.2533 13.766 37.717 13.207C37.1798 12.648 36.4838 12.369 35.6299 12.369C34.7751 12.369 34.0781 12.649 33.5428 13.207C33.0046 13.766 32.737 14.481 32.737 15.352C32.737 16.224 33.0046 16.933 33.5418 17.48C34.0781 18.028 34.7751 18.302 35.6289 18.302C36.4838 18.302 37.1798 18.028 37.716 17.48H37.717ZM58.9466 10.96C61.5929 11.744 63.2646 14.089 63.2646 17.12C63.2646 18.795 62.6874 20.25 61.5489 21.445C60.4175 22.631 58.9985 23.233 57.3308 23.233H50.1148C50.1016 23.2329 50.0885 23.2301 50.0763 23.2249C50.0641 23.2197 50.0531 23.2122 50.0438 23.2027C50.0345 23.1932 50.0272 23.182 50.0223 23.1697C50.0173 23.1574 50.0148 23.1443 50.015 23.131V0.869C50.015 0.813 50.0589 0.767 50.1148 0.767H56.471C58.0159 0.767 59.2911 1.284 60.2587 2.305C61.2534 3.285 61.7607 4.595 61.7607 6.192C61.7607 8.334 60.6991 10.1 58.9466 10.96ZM60.9438 20.872C61.9584 19.837 62.4517 18.61 62.4517 17.119C62.4517 15.463 61.9454 14.106 60.9468 13.088C59.9132 12.035 58.64 11.522 57.0542 11.522H50.8288V22.403H57.3298C58.7598 22.403 59.9761 21.888 60.9438 20.873V20.872ZM50.8278 1.597V10.693H56.471C57.7912 10.693 58.8727 10.271 59.6875 9.44C60.5234 8.588 60.9468 7.495 60.9468 6.192C60.9468 3.486 59.1063 1.597 56.471 1.597H50.8288H50.8278ZM120.326 23.072C120.337 23.087 120.344 23.1047 120.345 23.1232C120.346 23.1416 120.343 23.1601 120.334 23.1766C120.326 23.1931 120.313 23.207 120.298 23.2168C120.282 23.2266 120.264 23.2318 120.245 23.232H119.488C119.472 23.2321 119.456 23.2283 119.442 23.2208C119.427 23.2133 119.415 23.2024 119.406 23.189L111.318 11.624L107.746 15.83V23.13C107.746 23.1433 107.744 23.1566 107.739 23.169C107.734 23.1815 107.727 23.1928 107.717 23.2024C107.708 23.2119 107.697 23.2196 107.685 23.2248C107.672 23.2301 107.659 23.2329 107.646 23.233H107.045C107.032 23.2329 107.018 23.2301 107.006 23.2249C106.994 23.2197 106.983 23.2122 106.974 23.2027C106.964 23.1932 106.957 23.182 106.952 23.1697C106.947 23.1574 106.945 23.1443 106.945 23.131V0.869C106.945 0.813 106.99 0.767 107.045 0.767H107.646C107.701 0.767 107.746 0.813 107.746 0.869V14.593L119.347 0.803C119.356 0.791764 119.368 0.782723 119.381 0.776505C119.394 0.770288 119.409 0.767044 119.424 0.767H120.218C120.274 0.767 120.319 0.813 120.319 0.869C120.319 0.894 120.309 0.917 120.295 0.935L111.856 10.967L120.326 23.072ZM101.867 0.767C101.922 0.767 101.967 0.813 101.967 0.869V23.131C101.967 23.1443 101.964 23.1574 101.96 23.1697C101.955 23.182 101.947 23.1932 101.938 23.2027C101.929 23.2122 101.918 23.2197 101.905 23.2249C101.893 23.2301 101.88 23.2329 101.867 23.233H101.59C101.574 23.2331 101.559 23.2293 101.545 23.222C101.531 23.2147 101.519 23.204 101.509 23.191L86.9497 2.591V23.131C86.9498 23.1443 86.9473 23.1574 86.9424 23.1697C86.9374 23.182 86.9301 23.1932 86.9208 23.2027C86.9116 23.2122 86.9005 23.2197 86.8883 23.2249C86.8761 23.2301 86.8631 23.2329 86.8498 23.233H86.2367C86.2234 23.2329 86.2103 23.2301 86.1981 23.2249C86.186 23.2197 86.1749 23.2122 86.1656 23.2027C86.1564 23.1932 86.149 23.182 86.1441 23.1697C86.1391 23.1574 86.1367 23.1443 86.1368 23.131V0.869C86.1368 0.813 86.1817 0.767 86.2367 0.767H86.6261C86.6418 0.767231 86.6572 0.771153 86.6711 0.778449C86.685 0.785746 86.6969 0.796212 86.706 0.809L101.153 21.249V0.87C101.153 0.814 101.198 0.768 101.253 0.768H101.867V0.767ZM82.5158 23.095C82.5218 23.1103 82.524 23.1269 82.5222 23.1432C82.5204 23.1596 82.5146 23.1753 82.5053 23.1889C82.4961 23.2025 82.4837 23.2136 82.4691 23.2213C82.4546 23.229 82.4384 23.233 82.422 23.233H81.7848C81.7641 23.2328 81.7439 23.2262 81.7271 23.214C81.7102 23.2018 81.6976 23.1847 81.691 23.165L79.1425 16.282H68.7539L66.2065 23.167C66.1995 23.1863 66.1867 23.203 66.1699 23.2148C66.1532 23.2267 66.1331 23.233 66.1126 23.233H65.4745C65.458 23.2329 65.4418 23.2288 65.4273 23.221C65.4128 23.2131 65.4004 23.2019 65.3912 23.1882C65.3821 23.1745 65.3764 23.1587 65.3747 23.1423C65.3731 23.1259 65.3754 23.1093 65.3816 23.094L73.6601 0.833C73.6671 0.813673 73.6799 0.796968 73.6967 0.785159C73.7135 0.773349 73.7335 0.767009 73.754 0.767H74.1415C74.1623 0.766875 74.1826 0.773265 74.1996 0.785278C74.2166 0.79729 74.2295 0.814325 74.2363 0.834L82.5148 23.095H82.5158ZM69.0525 15.452H78.8449L73.9497 2.369L69.0535 15.452H69.0525Z" fill="white"/>
</svg>